<svg xmlns="http://www.w3.org/2000/svg" width="300" height="70" viewBox="0 0 300 70" fill="none"><path d="M81.5711 22.3294C81.3092 22.8342 80.7192 23.1056 80.1671 22.9699C80.0629 22.9447 79.962 22.9068 79.8736 22.8563C79.3372 22.5692 78.7346 22.4304 78.132 22.5187L78.0752 22.5282C78.0562 22.585 78.0499 22.6449 78.0247 22.7017C77.9553 22.8815 77.8575 23.0393 77.7502 23.1908C78.0247 23.3422 78.3244 23.4432 78.6431 23.481C78.8229 23.5031 79.0028 23.5631 79.17 23.6703C79.5928 23.9385 79.8168 24.4497 79.7253 24.9419C79.5739 25.7433 78.7504 26.1693 78.031 25.8821C77.7943 25.7875 77.6082 25.6013 77.4883 25.3773C77.3495 25.1217 77.2832 24.9072 77.2643 24.7273C77.2327 24.4181 77.1412 24.1247 76.9961 23.8565C76.608 24.0742 76.1663 24.1752 75.7119 24.1468C75.7088 24.1468 75.7056 24.1531 75.7025 24.1562C74.7149 24.8946 75.469 27.16 75.7876 28.4126C76.1063 29.6652 76.4218 31.2397 75.144 31.8612C73.4875 32.6658 68.2814 26.9107 67.5179 30.2268C67.5242 30.2426 67.5305 30.2552 67.5336 30.271C67.9533 31.6625 68.2309 33.1296 68.4203 34.5716C68.7105 36.777 69.6287 43.6207 65.8614 50.8839H65.8709C65.8709 50.8839 69.7454 51.3761 69.9726 53.0263C70.3891 56.0805 65.8993 57.106 66.4514 58.2134C66.9815 58.327 67.439 58.6236 67.7671 59.0306C68.0006 58.835 68.1931 58.5952 68.3382 58.3176C68.4234 58.1566 68.5622 57.9831 68.7863 57.7938C68.9787 57.6329 69.2217 57.5256 69.4741 57.5256C70.2471 57.5256 70.8561 58.2261 70.6983 59.0275C70.6037 59.5197 70.2061 59.9109 69.7139 60.0056C69.5183 60.0435 69.329 60.034 69.1554 59.9867C68.8462 59.9046 68.5275 59.8857 68.2183 59.9267C68.2625 60.1066 68.2941 60.2896 68.2941 60.4852C68.2941 60.5451 68.2814 60.6019 68.2751 60.6619L68.3256 60.6934C68.8494 60.9995 69.4615 61.0878 70.0673 61.0216C70.1682 61.0089 70.2724 61.0121 70.3828 61.0247C70.9444 61.1004 71.3956 61.5737 71.4492 62.1385C71.5407 63.0661 70.6131 63.8139 69.6539 63.3943C69.3857 63.2775 69.1807 63.044 69.0702 62.7727C68.862 62.2552 68.5054 61.823 68.0511 61.5043C67.8081 62.0028 67.398 62.4035 66.8868 62.6244V62.6402C67.0951 63.3753 67.48 64.0632 68.0669 64.5554C68.3792 64.8141 68.5591 65.2243 68.5054 65.6723C68.436 66.2339 67.9754 66.6883 67.4138 66.7546C66.6597 66.8397 66.0192 66.2529 66.0192 65.5146C66.0192 65.3757 66.0412 65.2432 66.0823 65.117C66.3252 64.3882 66.3063 63.5994 66.1012 62.861L66.0854 62.8011C66.0507 62.8011 66.016 62.8106 65.9813 62.8106C65.1199 62.8106 64.3785 62.3404 63.9777 61.6431C63.7096 62.1827 63.5644 62.7822 63.6307 63.3817C63.6433 63.4826 63.6401 63.5899 63.6275 63.694C63.5518 64.243 63.1038 64.6879 62.5547 64.7573C61.7502 64.8583 61.0718 64.1957 61.1475 63.3943C61.1917 62.9431 61.4946 62.5487 61.9111 62.3688C61.9111 62.3688 61.9206 62.3657 61.9237 62.3625C62.5169 62.1133 62.9965 61.6558 63.3215 61.1004L63.5392 60.725C62.2108 57.2511 65.2556 54.8595 65.2556 54.8595C65.2556 54.8595 63.9777 54.1117 62.9113 55.3738C62.8987 55.3895 62.886 55.3927 62.8734 55.4053C60.2546 58.6015 56.5252 61.7094 51.2055 64.3692C50.808 64.568 50.4072 64.751 50.0034 64.934C47.9746 66.7672 47.1763 68.2943 46.8892 69.0231C46.9239 69.0452 46.9618 69.0642 46.9933 69.0989C47.1953 69.3166 47.1826 69.6542 46.9681 69.8561C46.7504 70.0581 46.4128 70.0454 46.2108 69.8309C46.0089 69.6132 46.0215 69.2756 46.2361 69.0736C46.3465 68.9727 46.4885 68.9253 46.6273 68.9316C46.8892 68.2407 47.5739 66.8997 49.2461 65.2622C49.0852 65.3284 48.9211 65.3947 48.7602 65.4609C45.3021 68.6035 42.7212 69.285 41.661 69.4239C41.6358 69.5595 41.5569 69.6889 41.4339 69.7709C41.1878 69.935 40.8533 69.8687 40.6892 69.6226C40.5252 69.3765 40.5914 69.0421 40.8375 68.8812C41.0836 68.7171 41.4181 68.7833 41.579 69.0295C41.6042 69.0673 41.6137 69.1083 41.6295 69.1494C42.595 69.0105 44.9204 68.3921 48.0124 65.7544C39.7679 68.8307 30.6273 68.4647 22.6731 64.7952C20.5843 64.9119 19.3065 65.3915 18.7007 65.6881C18.7101 65.7291 18.7259 65.7701 18.7259 65.8143C18.7259 66.1109 18.4924 66.3507 18.1958 66.357C17.8993 66.357 17.6563 66.1204 17.6531 65.8269C17.6531 65.5303 17.8866 65.2905 18.1832 65.2842C18.3347 65.2842 18.4703 65.3442 18.5682 65.4452C19.1456 65.1549 20.3004 64.7163 22.1493 64.5554C21.1207 64.06 20.1142 63.511 19.1329 62.9021C15.9651 62.2931 14.0247 62.6907 13.2106 62.9557C13.2169 62.9999 13.2264 63.0409 13.2201 63.0851C13.1822 63.3785 12.9109 63.5836 12.6175 63.5457C12.324 63.5079 12.1189 63.2365 12.1568 62.9431C12.1947 62.6496 12.466 62.4446 12.7594 62.4824C12.9077 62.5014 13.0339 62.5834 13.1191 62.6938C13.7565 62.4793 15.0186 62.1921 16.9906 62.331C14.7157 61.6495 13.4725 60.7691 12.9172 60.2738C12.7973 60.3432 12.649 60.3684 12.5039 60.3306C12.2167 60.2517 12.0495 59.9551 12.1284 59.6711C12.2073 59.384 12.5039 59.2168 12.7878 59.2957C13.075 59.3746 13.2422 59.6711 13.1633 59.9551C13.1507 59.9993 13.1254 60.0308 13.1065 60.0687C13.7439 60.6209 15.3215 61.7189 18.3725 62.4004C13.5829 59.2483 9.44333 54.7427 6.52792 48.9056C5.19328 46.2363 4.36346 43.4818 3.94382 40.7179C2.83634 37.6984 1.49854 36.2438 0.85488 35.6822C0.820173 35.7074 0.788621 35.739 0.747604 35.7548C0.476257 35.8715 0.160737 35.7484 0.0439949 35.4771C-0.0727474 35.2057 0.0503053 34.8902 0.324807 34.7735C0.596154 34.6567 0.911674 34.7798 1.02842 35.0511C1.08836 35.19 1.08521 35.3383 1.02842 35.4676C1.6279 35.9788 2.76062 37.1872 3.79868 39.6041C3.77659 39.4053 3.75451 39.2065 3.73557 39.0078C1.77304 34.4769 2.00337 31.7003 2.2337 30.6276C2.1138 30.5581 2.01915 30.4414 1.98129 30.2963C1.90872 30.0091 2.08541 29.7189 2.37253 29.6463C2.65965 29.5737 2.94993 29.7473 3.0225 30.0375C3.09507 30.3247 2.91838 30.6149 2.63441 30.6875C2.59024 30.7001 2.54922 30.6938 2.50505 30.6938C2.30627 31.6688 2.09172 34.1677 3.66932 38.1559C3.16133 30.0502 5.97261 22.1085 9.87559 16.3661C11.5731 13.7851 13.6555 11.4692 16.0503 9.51929C16.085 9.48774 16.1134 9.4625 16.1481 9.43726C16.2617 9.3426 16.3784 9.24795 16.4952 9.15645C20.0795 6.24735 21.4078 3.78946 21.8275 2.80503C21.8054 2.78926 21.7801 2.77979 21.7581 2.76086C21.5467 2.55577 21.5403 2.21501 21.7486 2.00361C21.9568 1.79222 22.2944 1.78591 22.5058 1.99415C22.7172 2.19924 22.7235 2.54 22.5153 2.7514C22.3986 2.87129 22.2408 2.91862 22.083 2.90285C21.7454 3.71373 20.8304 5.46171 18.5934 7.65457C18.9436 7.4274 19.3002 7.20653 19.6599 6.99514C23.2126 3.25307 25.9639 2.38539 27.0683 2.18662C27.0872 2.04779 27.1598 1.91842 27.2797 1.83008C27.5194 1.65339 27.8539 1.70387 28.0306 1.94367C28.2073 2.18346 28.1568 2.51791 27.917 2.6946C27.6772 2.87129 27.3428 2.81766 27.1661 2.58102C27.1408 2.54631 27.1282 2.50529 27.1124 2.46427C26.1217 2.65358 23.6796 3.4203 20.5307 6.49977C20.862 6.31677 21.1964 6.13377 21.5372 5.96339C27.5005 2.98173 36.4581 1.13594 45.3684 3.73266C47.801 3.78315 48.4952 2.29389 49.4418 0.681587C50.1611 -0.54894 52.0006 -0.0945914 51.6094 1.89318C51.3475 3.21837 49.3439 4.52462 46.987 4.25958C47.8642 4.56879 48.7381 4.92533 49.609 5.32919C50.2274 5.59423 51.0509 5.42385 51.723 5.3639C51.9501 5.34181 52.1868 5.38283 52.4076 5.48695C53.1428 5.83718 53.4047 6.77743 52.9062 7.47157C52.5906 7.91014 52.0069 8.11523 51.4863 7.97325C51.196 7.89121 50.9626 7.7303 50.7953 7.5189C50.3504 6.96043 50.0097 6.10853 49.3692 5.78985L49.2714 5.74252C46.5705 4.50253 43.8223 3.73582 41.1152 3.34142C45.28 4.7865 47.4414 8.42128 46.6936 10.2608C45.6934 12.7187 42.9231 11.6774 42.9105 9.75909C42.8979 7.28857 43.1061 5.14304 40.0361 3.20259C37.9758 2.97541 35.947 2.95964 33.9876 3.11109C35.8649 3.63485 37.0797 4.49937 37.6508 4.98843C37.7738 4.91271 37.9221 4.88115 38.0736 4.92217C38.3607 4.9979 38.5279 5.29448 38.4522 5.57845C38.3765 5.86557 38.083 6.0328 37.7959 5.95708C37.5088 5.88135 37.3416 5.58792 37.4173 5.3008C37.4268 5.25978 37.452 5.23138 37.4709 5.19352C36.8399 4.66345 35.3917 3.64747 33.1357 3.18681C28.8162 3.6317 24.8785 4.86853 21.7675 6.42404C19.6535 7.48104 17.6942 8.79044 15.9146 10.3049C18.2937 10.0683 20.7232 10.2103 23.0896 10.712C25.4717 10.3996 25.9986 8.8567 26.7527 7.16552C27.3396 5.85295 29.2769 6.05804 29.1223 8.07737C29.015 9.47196 26.9925 11.0906 24.4242 11.0306C25.4528 11.3114 26.4625 11.6585 27.4437 12.0687C28.5228 11.8668 29.1097 11.466 29.4094 11.1789C29.3463 11.0906 29.3053 10.9801 29.3148 10.8603C29.3337 10.5889 29.5703 10.3838 29.8448 10.4027C30.1193 10.4217 30.3244 10.6583 30.3023 10.9328C30.2834 11.2073 30.0468 11.4124 29.7723 11.3903C29.7186 11.3872 29.6713 11.3682 29.624 11.3493C29.3432 11.6301 28.8194 11.993 27.9233 12.2296C29.5135 12.6587 30.8545 11.9835 31.4729 11.5765C31.4224 11.444 31.4256 11.2894 31.5045 11.1568C31.6433 10.9202 31.9462 10.8413 32.1828 10.977C32.4195 11.1158 32.4983 11.4187 32.3627 11.6554C32.2238 11.892 31.9209 11.9709 31.6843 11.8321C31.6654 11.8194 31.6528 11.8037 31.637 11.7879C31.129 12.1255 30.1603 12.6398 28.9519 12.6398C28.8636 12.6398 28.7721 12.624 28.6806 12.6177C29.2643 12.9017 29.8322 13.214 30.3875 13.5422C30.3875 13.5422 30.3938 13.5453 30.397 13.5485C30.5011 13.6116 30.6084 13.6684 30.7093 13.7315C34.199 14.9241 35.7356 13.397 37.6697 11.8352C39.159 10.6331 41.721 12.1223 40.4494 14.4477C39.5944 16.0127 36.1394 16.6753 32.7255 15.1292C33.9308 16.0663 34.991 17.1012 35.8933 18.2119C35.8933 18.2119 35.9028 18.2119 35.906 18.2182C37.9253 20.5435 39.9036 20.3132 40.746 20.064C40.7271 19.8273 40.8722 19.6065 41.1089 19.5465C41.3739 19.4802 41.6421 19.6412 41.7084 19.9062C41.7746 20.1712 41.6137 20.4426 41.3487 20.5057C41.1467 20.5562 40.9417 20.4741 40.8281 20.3132C40.5504 20.3921 40.1623 20.4678 39.6985 20.4678C39.5218 20.4678 39.3293 20.4489 39.1306 20.4237C39.9509 20.9537 40.4274 21.5343 40.6766 21.9192C40.9385 21.8593 41.2035 22.017 41.2698 22.2789C41.3361 22.5439 41.1751 22.8121 40.9101 22.8784C40.6451 22.9447 40.3737 22.7837 40.3106 22.5187C40.2664 22.3483 40.3264 22.1811 40.4368 22.0644C40.1181 21.5848 39.4208 20.7581 38.1272 20.1744C38.1209 20.1744 38.1241 20.1649 38.1178 20.1618C37.7013 20.004 37.2627 19.7737 36.8147 19.4392C37.534 20.4994 38.1178 21.6132 38.5563 22.7648C39.9509 24.7084 41.5569 24.4465 43.3996 24.3172C44.832 24.2194 45.564 26.0273 43.7056 26.8382C42.4909 27.3682 40.2917 26.4753 39.0832 24.4276C39.1085 24.5349 39.14 24.6421 39.1653 24.7494C40.7397 29.2361 38.9097 33.4578 36.8746 33.9184C34.2873 34.5053 33.5553 31.6341 35.1203 30.5297C37.0923 29.1351 38.9381 28.1002 38.8624 24.6611C38.3228 22.4209 37.2375 20.2848 35.6788 18.3728C36.9093 20.5152 36.5307 22.9636 35.4169 23.7429C33.7573 24.904 32.5962 23.3391 33.426 22.1653C34.5051 20.6445 35.5747 19.4014 34.5966 17.1612C33.9592 16.5049 33.2619 15.8833 32.5078 15.2996C31.8957 14.8263 31.2584 14.3878 30.5989 13.9776C30.6589 14.1385 30.7125 14.2963 30.7598 14.454C31.6212 15.4227 32.0345 16.3629 32.2175 16.8993C32.2996 16.8993 32.3816 16.9119 32.4605 16.9561C32.6971 17.0886 32.7855 17.3915 32.6498 17.6313C32.5173 17.8679 32.2144 17.9531 31.9746 17.8206C31.7348 17.6881 31.6496 17.3852 31.7853 17.1454C31.8263 17.0728 31.8862 17.0192 31.9557 16.975C31.8074 16.5459 31.5076 15.8518 30.9397 15.0977C31.3593 16.8677 31.1669 18.3191 31.0154 19.0259C31.2457 19.1616 31.3278 19.4582 31.1952 19.6916C31.0596 19.9314 30.7598 20.0166 30.52 19.881C30.2802 19.7484 30.1951 19.4455 30.3307 19.2057C30.4191 19.048 30.58 18.9691 30.7472 18.9628C30.9271 18.0983 31.1763 16.0663 30.2266 13.7567C30.2108 13.7473 30.1982 13.7378 30.1824 13.7315C30.2708 14.7033 30.0783 15.3911 29.8922 15.7855C29.93 15.8265 29.9647 15.8707 29.99 15.9243C30.1004 16.1736 29.9837 16.467 29.7344 16.5775C29.4851 16.6847 29.1917 16.5712 29.0844 16.3219C28.974 16.0726 29.0907 15.7792 29.34 15.6719C29.4441 15.6278 29.5545 15.6278 29.6555 15.653C29.8322 15.2617 30.031 14.5676 29.8985 13.5674C27.551 12.2296 24.9574 11.2988 22.2881 10.8224C26.5603 12.2265 28.7941 15.9338 28.0369 17.7985C27.0367 20.2564 24.2633 19.2152 24.2538 17.3C24.2412 14.7948 24.4557 12.624 21.2469 10.6646C19.663 10.4532 18.0633 10.3996 16.4826 10.5195C19.1456 10.7751 20.944 12.7691 20.8998 14.2111C20.8367 16.1831 18.7859 16.1231 18.4167 14.7348C17.9497 12.9711 17.6815 11.384 15.4729 10.6772C13.4725 12.4473 11.7182 14.4856 10.2574 16.7226C8.40527 19.8147 6.93494 23.3391 6.09566 27.1095C7.1211 24.8819 9.25086 23.7208 10.6107 24.0269C12.69 24.5002 12.2073 26.6678 10.6549 26.7719C8.67346 26.9076 6.92232 26.8666 5.71704 29.1131C4.77679 35.0259 5.41098 41.4341 8.50939 47.6372C9.56953 49.7544 10.9452 51.7043 12.567 53.4617C12.1883 51.6475 12.365 50.2371 12.5196 49.5272C12.3934 49.4578 12.2956 49.3379 12.2609 49.1864C12.1947 48.8993 12.3713 48.609 12.6585 48.5428C12.9456 48.4733 13.2359 48.6532 13.3053 48.9403C13.3715 49.2274 13.1949 49.5177 12.9077 49.5871C12.8667 49.5966 12.8289 49.5903 12.791 49.5903C12.6364 50.3318 12.4502 51.881 12.9361 53.8403C20.1615 61.3655 31.9683 65.1864 42.494 63.1576C39.0485 62.7885 35.6788 61.5516 32.6435 59.6143C32.6435 59.6112 32.6372 59.6143 32.6372 59.6143L32.6309 59.608C31.4161 58.8319 30.2613 57.9452 29.1728 56.9514C28.0148 56.8378 27.2008 57.0744 26.7464 57.2763C26.7811 57.412 26.7654 57.5603 26.6833 57.6897C26.5287 57.9421 26.1974 58.021 25.945 57.8632C25.6926 57.7086 25.6137 57.3773 25.7715 57.1249C25.9261 56.8725 26.2574 56.7968 26.5098 56.9514C26.5476 56.9766 26.5729 57.0082 26.6013 57.0366C27.0367 56.8378 27.7971 56.6169 28.8604 56.6642C27.7592 55.6262 26.7401 54.484 25.8156 53.244C23.5723 51.698 22.0263 52.6098 20.1805 53.4806C18.7732 54.1432 17.3282 52.6067 18.8837 51.0606C20.0006 49.95 22.998 50.1014 25.0773 52.1996C24.9385 51.9945 24.7965 51.7958 24.664 51.5875C24.0456 50.6126 23.5155 49.6218 23.0548 48.6248C20.4423 45.4696 18.1485 46.0407 15.4571 46.4193C13.4031 46.7096 11.8539 43.9046 14.3276 42.4469C16.0882 41.4089 20.0038 42.9423 22.2787 46.7348C21.6918 45.1036 21.3195 43.4661 21.1586 41.8506C21.1586 41.8474 21.1523 41.8443 21.1523 41.838C20.3035 39.3485 18.6123 38.5439 17.7794 38.2947C17.6626 38.5187 17.4102 38.6449 17.1578 38.5692C16.8738 38.484 16.7129 38.1843 16.7981 37.9003C16.8833 37.6163 17.183 37.4554 17.467 37.5406C17.691 37.61 17.833 37.8088 17.8425 38.0296C18.2305 38.1464 18.7953 38.3767 19.3822 38.8184C18.9626 37.9129 18.8963 37.1588 18.9152 36.6855C18.6597 36.5846 18.5145 36.3069 18.5966 36.0387C18.6817 35.7548 18.9815 35.5938 19.2655 35.679C19.5494 35.7642 19.7103 36.064 19.6251 36.3479C19.5652 36.553 19.3885 36.6887 19.1929 36.7202C19.1803 37.2692 19.2844 38.2253 19.9722 39.3327C20.3792 39.7461 20.7705 40.2856 21.0955 40.9734C21.0261 39.6325 21.1112 38.3105 21.3416 37.0263C21.1333 34.4327 19.4926 33.7796 17.7068 32.8741C16.3217 32.1704 16.6466 30.0849 18.8206 30.3625C20.029 30.5171 21.3258 32.0222 21.6823 34.0509C21.7738 31.3154 21.4962 29.2014 21.1459 27.6774C20.6443 26.8666 19.5747 26.6867 18.9405 26.652C18.8837 26.8729 18.6944 27.0433 18.4546 27.0527C18.158 27.0653 17.9087 26.8382 17.8929 26.5416C17.8803 26.245 18.1075 25.9957 18.4041 25.98C18.6597 25.9673 18.8711 26.1409 18.9342 26.3744C19.4926 26.3996 20.3761 26.5353 20.9977 27.0843C20.7515 26.1661 20.4928 25.5098 20.3161 25.1217C20.0795 25.1691 19.8334 25.0649 19.7261 24.8346C19.5999 24.5664 19.7135 24.2477 19.9817 24.1215C20.2499 23.9953 20.5685 24.1089 20.6948 24.3771C20.7989 24.598 20.7326 24.8472 20.5591 25.0018C20.8494 25.6423 21.3479 26.9454 21.6697 28.9553C21.9852 27.4724 22.5374 26.5794 22.9065 26.1282C22.7646 25.8979 22.8087 25.595 23.0296 25.4278C23.2631 25.2479 23.6007 25.2921 23.7805 25.5256C23.9604 25.7622 23.9162 26.0967 23.6827 26.2765C23.5092 26.4091 23.2852 26.4185 23.1053 26.3207C22.6983 26.835 22.042 27.9267 21.7959 29.8261C21.9568 31.1545 22.0294 32.7415 21.9379 34.5842C23.0454 29.6936 26.9925 26.8855 29.1034 27.5765C31.8326 28.4694 30.9176 31.5426 28.8478 31.6972C26.2321 31.8959 23.9383 31.8297 22.0925 35.0953C21.3258 37.5437 21.1554 40.1657 21.5687 42.835C21.5467 40.0868 23.3009 37.9445 24.7997 37.8372C26.9862 37.6794 27.1945 39.7808 25.7715 40.4055C23.9004 41.2259 22.2029 41.7906 21.8937 44.4978C22.4617 46.8295 23.4713 49.1738 24.9069 51.4392C25.4244 52.2533 25.9829 53.0295 26.576 53.7709C24.2096 49.8459 24.8091 45.5043 26.6234 44.4599C29.1128 43.0306 30.7851 45.763 29.5167 47.4069C27.8665 49.5461 26.2416 51.2531 27.652 55.0425C29.0339 56.5633 30.5768 57.8979 32.227 59.018C31.8105 58.3649 31.577 57.7465 31.454 57.1817C30.52 56.3329 30.1319 55.5094 29.9742 55.0015C29.9332 55.0015 29.889 55.0015 29.848 54.992C29.564 54.9068 29.3999 54.6102 29.4851 54.3262C29.5672 54.0423 29.8669 53.8782 30.1509 53.9634C30.4348 54.0454 30.5958 54.3452 30.5137 54.6291C30.4727 54.7743 30.3717 54.8879 30.2487 54.951C30.3875 55.3706 30.7062 56.0237 31.3814 56.7179C31.2836 55.8376 31.4477 55.1308 31.6086 54.6922C31.4445 54.5597 31.3688 54.3389 31.4287 54.1243C31.5108 53.8403 31.8105 53.6763 32.0945 53.7583C32.3784 53.8403 32.5425 54.1401 32.4573 54.4241C32.3816 54.6891 32.1134 54.8405 31.8484 54.7932C31.5549 55.582 31.2236 57.3331 32.8328 59.403C34.1264 60.2265 35.4832 60.9238 36.8809 61.4728C34.6376 60.0529 33.8078 57.5351 34.4136 56.1941C35.2907 54.2505 37.3195 55.1561 37.1144 56.6989C36.8494 58.6804 36.4581 60.3968 38.4585 62.0344C40.0803 62.5392 41.7399 62.8516 43.4122 62.9557C45.4978 62.4824 47.5297 61.782 49.4512 60.8228C51.2844 59.9046 52.6001 58.9391 53.5561 57.9232C56.5094 54.585 53.9758 52.512 53.2375 51.0354C52.3224 49.2054 52.9756 46.0786 52.9756 46.0786C52.9756 46.0786 52.2215 48.4386 49.1799 49.076C49.1704 49.0791 49.1609 49.0823 49.1515 49.0855L48.7792 49.6534C48.4258 50.1929 48.2365 50.8271 48.2775 51.4708V51.4834C48.3027 51.9378 48.0882 52.3826 47.7032 52.6256C47.0217 53.0515 46.1225 52.7423 45.8543 51.9756C45.6713 51.4519 45.8669 50.8524 46.3244 50.54C46.4128 50.4801 46.5074 50.4296 46.6021 50.3949C47.1669 50.1835 47.637 49.7859 47.9998 49.3063C47.1984 49.2558 46.4443 48.8046 46.0594 48.0348C46.0436 48.0032 46.0373 47.9685 46.0215 47.937L45.9616 47.9496C45.2075 48.0947 44.4944 48.4355 43.9517 48.9782C43.8602 49.0697 43.7498 49.1517 43.6267 49.2117C42.9673 49.543 42.1532 49.2306 41.8914 48.5175C41.6957 47.9843 41.8977 47.369 42.3678 47.0567C42.7433 46.8042 43.1913 46.7853 43.5636 46.9462C44.2641 47.2523 45.0529 47.287 45.8007 47.1419H45.8164C45.7817 46.5834 45.9584 46.0344 46.2929 45.5927C45.807 45.3308 45.258 45.2046 44.7026 45.2487C44.4092 45.274 44.1126 45.1919 43.8855 45.0058C43.0809 44.3337 43.3301 43.1695 44.201 42.835C44.731 42.6299 45.3526 42.8224 45.6744 43.2925C45.7344 43.3809 45.7849 43.4755 45.8196 43.5733C46.031 44.1444 46.3844 44.6524 46.8924 44.9837L46.9428 45.0153C46.9933 44.9837 47.0406 44.9458 47.0943 44.9206C47.2678 44.8354 47.4445 44.7786 47.6275 44.7376C47.5265 44.441 47.3656 44.1665 47.1542 43.9267C47.0343 43.791 46.9428 43.627 46.886 43.4345C46.7472 42.9549 46.9239 42.4217 47.3183 42.1156C47.9651 41.6171 48.8643 41.8506 49.2083 42.5416C49.3219 42.7688 49.3345 43.0306 49.2777 43.2767C49.2114 43.5607 49.1199 43.7626 49.0095 43.9109C48.8265 44.1633 48.7003 44.4442 48.6277 44.7408C48.8391 44.7881 49.0474 44.8575 49.2367 44.9585C49.2367 44.9585 49.2367 44.9585 49.2398 44.9585C51.6031 44.5861 51.9912 40.6548 53.0229 40.1405C54.2029 39.5505 56.3643 42.3207 56.9732 45.1793V45.1856C57.2477 44.1129 57.6358 43.0085 58.2227 41.8758C59.3554 39.6861 59.8318 37.6889 59.9328 35.9409C59.5826 34.0289 58.0933 33.3568 56.8628 34.5179C55.6291 35.6822 54.1651 37.853 53.187 37.143C52.1678 36.4016 52.5938 34.6063 51.7829 34.3349L51.7734 34.3286C51.5053 34.4927 51.2118 34.5968 50.9026 34.641C50.9531 34.9407 51.0572 35.231 51.2213 35.496C51.3159 35.6506 51.3948 35.8589 51.439 36.1492C51.4769 36.3984 51.4453 36.6603 51.3159 36.878C50.9215 37.5437 50.0065 37.7078 49.3976 37.162C49.0253 36.8275 48.8896 36.2848 49.0631 35.8147C49.1325 35.6285 49.2367 35.4708 49.366 35.3446C49.5964 35.1206 49.7762 34.8587 49.8993 34.5716C49.7226 34.5179 49.549 34.4485 49.3818 34.3507C49.3313 34.3191 49.2871 34.2813 49.2398 34.2434L49.1893 34.2718C48.6561 34.5652 48.268 35.0448 48.0156 35.6001C47.9714 35.6916 47.9178 35.7831 47.8515 35.8683C47.495 36.3132 46.8608 36.4584 46.3465 36.2154C45.5041 35.8179 45.3368 34.6378 46.1887 34.0257C46.4285 33.8553 46.7314 33.7985 47.0217 33.8427C47.5707 33.9279 48.1292 33.8427 48.6309 33.6155C48.328 33.1517 48.1954 32.5932 48.268 32.0411H48.2522C47.5171 31.836 46.7283 31.8139 46.0057 32.0663C45.6208 32.202 45.1791 32.1484 44.8194 31.8707C44.3714 31.5236 44.2167 30.8926 44.4502 30.3783C44.7626 29.6842 45.5987 29.4349 46.2329 29.8135C46.3528 29.8829 46.4538 29.9713 46.539 30.0722C47.0406 30.6528 47.7253 31.044 48.4668 31.2428L48.5267 31.2586C48.5425 31.227 48.552 31.1955 48.5709 31.1639C49.0126 30.4256 49.7983 30.0281 50.5997 30.0407C50.2716 29.5327 49.833 29.1036 49.284 28.8512C49.1893 28.8102 49.101 28.7534 49.0158 28.6871C48.5835 28.34 48.4321 27.7279 48.653 27.2199C48.9779 26.4753 49.8961 26.2324 50.5461 26.7088C50.9121 26.977 51.0951 27.4408 51.0351 27.892V27.9046C50.9436 28.542 51.0888 29.1888 51.4011 29.7536L51.7293 30.3467C51.7293 30.3467 51.7482 30.3531 51.7545 30.3594C53.0986 31.0914 54.0988 34.0131 54.0988 34.0131C54.0988 34.0131 55.4776 32.0442 56.8312 31.2081C58.1911 30.3657 58.2542 29.3245 58.1122 28.583C58.0965 28.5514 58.0807 28.523 58.0681 28.4978C57.478 27.3178 57.3013 25.6707 56.1402 25.3678C55.1337 26.0241 53.8527 26.2103 52.2814 25.6834C49.1105 24.6264 43.9359 20.4047 44.8604 17.6313C45.7849 14.861 52.4581 14.5928 55.6291 15.6498C57.4465 16.2556 58.1375 17.4704 58.8853 18.6662C59.1598 19.1048 59.9359 20.0324 60.2231 20.2848C61.9142 21.7962 63.5928 23.3832 64.4605 24.7557C66.6407 23.989 73.4244 27.7784 73.4244 27.7784C73.4244 27.7784 71.5912 23.175 73.6863 20.6887L73.6232 20.269C73.5254 19.6317 73.2477 19.0322 72.7871 18.5779L72.7776 18.5684C72.4558 18.2466 72.3201 17.7701 72.4463 17.3316C72.6703 16.5585 73.5475 16.1925 74.2605 16.5838C74.7464 16.852 74.9988 17.4294 74.8663 17.9689C74.8411 18.073 74.8032 18.174 74.7527 18.2623C74.4719 18.7956 74.3867 19.4045 74.4341 20.0072C75.0651 19.5086 75.9296 19.3446 76.7279 19.6632C76.7594 19.6759 76.7878 19.698 76.8194 19.7106L76.8573 19.6601C77.3211 19.0511 77.6303 18.3223 77.6713 17.5556C77.6776 17.4231 77.706 17.2937 77.7596 17.1643C78.0341 16.4797 78.845 16.1673 79.5171 16.527C80.0156 16.7952 80.2775 17.3884 80.1355 17.9374C80.0219 18.3759 79.7032 18.6883 79.3152 18.8145C78.5895 19.0543 77.9773 19.5497 77.5167 20.1586L77.5072 20.1712C77.9016 20.5625 78.1351 21.0894 78.1793 21.6416C78.7188 21.5153 79.211 21.244 79.596 20.8401C79.7979 20.6256 80.0756 20.4868 80.369 20.4773C81.4165 20.4426 82.0034 21.4775 81.5774 22.3105M68.0606 17.9121C69.2375 17.0003 68.5686 14.7979 66.5808 15.3406C64.918 15.795 63.5802 19.5528 65.4197 23.2002C64.9748 20.0482 66.4672 19.1426 68.0606 17.9121ZM58.2037 13.965C60.0306 14.3688 62.5863 15.5962 63.2236 18.6694C64.2586 13.3465 61.4031 9.95786 58.677 10.1724C56.1749 10.368 56.0424 13.4917 58.2037 13.9681" fill="#000000"/><path d="M208.167 52.7282H208.195C208.812 51.8495 209.665 51.1362 210.418 51.1362C211.171 51.1362 211.668 51.6041 211.668 52.2061C211.668 52.5342 211.559 52.7539 211.408 53.1933L210.503 55.7867C210.421 56.0206 210.298 56.4315 210.298 56.7053C210.298 56.8708 210.381 57.0905 210.655 57.0905C211.108 57.0905 211.533 56.7053 211.973 55.8551L212.124 55.9236C211.67 56.8708 211.163 57.2817 210.435 57.2817C209.844 57.2817 209.391 57.0334 209.391 56.4457C209.391 56.1718 209.419 56.0606 209.556 55.664L210.586 52.7425C210.752 52.2889 210.82 52.0549 210.82 51.8381C210.82 51.5214 210.712 51.3302 210.284 51.3302C209.488 51.3302 208.17 52.811 207.662 54.2403L206.632 57.1076H205.67L207.222 52.8395C207.414 52.2917 207.471 52.0435 207.471 51.878C207.471 51.5499 207.362 51.3302 207.031 51.3302C206.275 51.3302 204.96 52.4144 204.315 54.2118L203.271 57.1076H202.31L204.298 51.413H203.049L203.103 51.2218H205.271L204.749 52.7853H204.777C205.476 51.8381 206.341 51.1391 207.151 51.1391C207.836 51.1391 208.235 51.607 208.235 52.209C208.235 52.3859 208.207 52.5799 208.167 52.7311" fill="#000000"/><path d="M214.866 53.8951C214.606 53.8951 214.398 53.8808 214.167 53.8409C213.961 54.4457 213.81 54.9792 213.81 55.624C213.81 56.6112 214.386 57.0933 215.168 57.0933C215.827 57.0933 216.486 56.7909 217.239 55.6668L217.405 55.7638C216.76 56.808 215.978 57.2873 214.988 57.2873C213.616 57.2873 212.849 56.3401 212.849 55.216C212.849 53.4044 214.797 51.0449 216.692 51.0449C217.556 51.0449 218.229 51.4301 218.229 52.0749C218.229 53.3787 216.075 53.9008 214.869 53.9008M214.92 53.7039C216.195 53.7039 217.376 52.8794 217.376 51.8923C217.376 51.5214 217.157 51.2332 216.649 51.2332C215.647 51.2332 214.686 52.4001 214.232 53.6469C214.506 53.6868 214.7 53.7011 214.917 53.7011" fill="#000000"/><path d="M226.763 46.6772L223.647 55.3761C223.539 55.6928 223.345 56.2691 223.345 56.6514C223.345 56.8854 223.467 57.0081 223.687 57.0081C224.181 57.0081 224.649 56.5288 224.962 55.8155L225.142 55.9125C224.771 56.7085 224.181 57.2848 223.399 57.2848C222.794 57.2848 222.495 56.9966 222.495 56.4603C222.495 56.3091 222.549 55.9382 222.646 55.6786H222.617C221.67 56.8854 220.903 57.2848 220.121 57.2848C219.242 57.2848 218.64 56.6115 218.64 55.5273C218.64 54.6486 219.148 53.496 220.192 52.5088C221.236 51.5217 222.278 51.0395 222.937 51.0395C223.485 51.0395 223.924 51.3819 223.924 51.8897H223.952L225.736 46.8684H224.529L224.583 46.6772H226.766H226.763ZM221.85 56.2977C222.386 55.7898 222.7 55.3362 222.811 55.0366L223.51 53.088C223.69 52.5944 223.798 52.292 223.798 52.0723C223.798 51.593 223.525 51.2364 222.988 51.2364C222.261 51.2364 221.41 51.8127 220.683 52.9939C219.955 54.1607 219.599 55.3961 219.599 56.1094C219.599 56.6999 219.804 57.0965 220.341 57.0965C220.808 57.0965 221.328 56.8083 221.85 56.3005" fill="#000000"/><path d="M228.903 51.2194L227.282 55.8584C227.2 56.0924 227.077 56.4633 227.077 56.6944C227.077 56.914 227.2 57.0909 227.462 57.0909C227.887 57.0909 228.423 56.5688 228.766 55.8556L228.931 55.924C228.52 56.817 227.944 57.2821 227.217 57.2821C226.626 57.2821 226.229 57.0481 226.229 56.4576C226.229 56.1837 226.298 55.9212 226.518 55.3049L227.89 51.4077H226.669L226.723 51.2165H228.906L228.903 51.2194ZM229.382 48.626C229.04 48.626 228.737 48.3521 228.737 47.9812C228.737 47.6103 229.04 47.3364 229.382 47.3364C229.724 47.3364 230.027 47.6103 230.027 47.9812C230.027 48.3521 229.724 48.626 229.382 48.626Z" fill="#000000"/><path d="M234.489 52.8679C234.161 52.8679 234.05 52.7025 234.05 52.5256C234.05 52.0862 234.42 52.0463 234.42 51.6212C234.42 51.333 234.201 51.236 233.83 51.236C232.774 51.236 231.978 52.2374 231.456 53.4442C231.139 54.186 230.948 54.9934 230.948 55.681C230.948 56.4627 231.402 57.0933 232.321 57.0933C233.102 57.0933 233.816 56.5854 234.378 55.6525L234.569 55.7609C233.856 56.8451 233.06 57.2844 232.112 57.2844C230.794 57.2844 229.987 56.3657 229.987 55.2131C229.987 54.3629 230.412 53.3872 231.017 52.634C231.773 51.701 232.868 51.042 233.913 51.042C234.694 51.042 235.188 51.4271 235.188 52.1404C235.188 52.7025 234.86 52.8679 234.489 52.8679Z" fill="#000000"/><path d="M238.303 51.2194L236.683 55.8584C236.6 56.0924 236.477 56.4633 236.477 56.6944C236.477 56.914 236.6 57.0909 236.862 57.0909C237.287 57.0909 237.824 56.5688 238.166 55.8556L238.332 55.924C237.921 56.817 237.345 57.2821 236.617 57.2821C236.026 57.2821 235.63 57.0481 235.63 56.4576C235.63 56.1837 235.698 55.9212 235.918 55.3049L237.29 51.4077H236.069L236.123 51.2165H238.306L238.303 51.2194ZM238.782 48.626C238.44 48.626 238.138 48.3521 238.138 47.9812C238.138 47.6103 238.44 47.3364 238.782 47.3364C239.125 47.3364 239.427 47.6103 239.427 47.9812C239.427 48.3521 239.125 48.626 238.782 48.626Z" fill="#000000"/><path d="M245.122 53.2101L244.229 55.7351C244.12 56.0517 244.009 56.3656 244.009 56.6537C244.009 56.8734 244.078 57.0931 244.366 57.0931C244.845 57.0931 245.353 56.5853 245.684 55.8577L245.835 55.9262C245.381 56.8734 244.874 57.2842 244.146 57.2842C243.555 57.2842 243.102 57.036 243.102 56.4483C243.102 56.1887 243.185 55.9005 243.336 55.4754L244.42 52.4027C244.488 52.183 244.528 51.9919 244.528 51.8407C244.528 51.6067 244.377 51.3328 243.992 51.3328C243.607 51.3328 243.045 51.621 242.454 52.2258C241.864 52.8164 241.453 53.5011 241.205 54.1745L240.149 57.1102H239.188L241.176 51.4156H239.926L239.981 51.2244H242.149L241.587 52.9134H241.615C242.494 51.7465 243.373 51.1445 244.126 51.1445C244.879 51.1445 245.376 51.6124 245.376 52.2144C245.376 52.5311 245.279 52.7765 245.116 53.2158" fill="#000000"/><path d="M250.391 52.5226C250.132 52.5226 249.912 52.3714 249.912 52.0975C249.912 51.8236 250.092 51.7694 250.092 51.5897C250.092 51.3558 249.926 51.2331 249.627 51.2331C248.802 51.2331 248.352 51.7552 248.352 52.3714C248.352 52.7138 248.531 53.0019 248.888 53.4841C249.587 54.4313 249.972 54.651 249.972 55.4042C249.972 56.5169 248.765 57.2843 247.638 57.2843C246.705 57.2843 246.006 56.845 246.006 56.2145C246.006 55.7894 246.309 55.5839 246.705 55.5839C246.885 55.5839 247.048 55.7209 247.048 55.8864C247.048 56.106 246.911 56.2829 246.911 56.5026C246.911 56.942 247.227 57.0932 247.678 57.0932C248.557 57.0932 249.119 56.5026 249.119 55.912C249.119 55.5126 248.996 55.3357 248.665 54.8678C248.391 54.4713 248.006 54.0433 247.761 53.661C247.595 53.4128 247.501 53.1674 247.501 52.9192C247.501 52.0405 248.38 51.0391 249.684 51.0391C250.44 51.0391 250.959 51.41 250.959 51.9435C250.959 52.3286 250.74 52.5198 250.397 52.5198" fill="#000000"/><path d="M256.086 46.6772L253.726 53.2906H254.043C254.619 53.2906 255.196 52.7285 255.607 52.1522C256.046 51.536 256.582 51.0395 257.116 51.0395C257.649 51.0395 257.858 51.2877 257.858 51.7956C257.858 52.2207 257.609 52.4546 257.281 52.4546C256.953 52.4546 256.788 52.3177 256.788 52.0837C256.788 51.8498 256.899 51.7956 256.899 51.6158C256.899 51.5074 256.83 51.4504 256.679 51.4504C256.445 51.4504 256.211 51.7243 255.761 52.2863C255.296 52.8769 254.925 53.2335 254.608 53.3562V53.3961C255.253 53.4503 255.609 53.7927 255.732 54.369C255.855 54.9596 255.966 55.5502 256.074 56.1265C256.183 56.6885 256.294 57.0052 256.582 57.0052C256.953 57.0052 257.296 56.5373 257.626 55.7698L257.818 55.8241C257.364 56.9082 256.856 57.2791 256.197 57.2791C255.704 57.2791 255.484 57.0879 255.318 56.7171C255.153 56.3462 255.084 55.7984 254.933 55.1536C254.782 54.5088 254.728 54.0552 254.577 53.8098C254.44 53.5901 254.288 53.4817 253.878 53.4817H253.644L252.354 57.1051H251.393L255.056 46.8684H253.835L253.889 46.6772H256.086Z" fill="#000000"/><path d="M261.438 51.2194L259.817 55.8584C259.735 56.0924 259.612 56.4633 259.612 56.6944C259.612 56.914 259.735 57.0909 259.997 57.0909C260.422 57.0909 260.959 56.5688 261.301 55.8556L261.466 55.924C261.056 56.817 260.479 57.2821 259.752 57.2821C259.161 57.2821 258.765 57.0481 258.765 56.4576C258.765 56.1837 258.833 55.9212 259.053 55.3049L260.425 51.4077H259.204L259.258 51.2165H261.441L261.438 51.2194ZM261.917 48.626C261.575 48.626 261.272 48.3521 261.272 47.9812C261.272 47.6103 261.575 47.3364 261.917 47.3364C262.26 47.3364 262.562 47.6103 262.562 47.9812C262.562 48.3521 262.26 48.626 261.917 48.626Z" fill="#000000"/><path d="M270.317 52.8679C269.989 52.8679 269.878 52.7025 269.878 52.5256C269.878 52.0862 270.249 52.0463 270.249 51.6212C270.249 51.333 270.029 51.236 269.658 51.236C268.602 51.236 267.806 52.2374 267.284 53.4442C266.968 54.186 266.776 54.9934 266.776 55.681C266.776 56.4627 267.23 57.0933 268.149 57.0933C268.93 57.0933 269.644 56.5854 270.206 55.6525L270.397 55.7609C269.684 56.8451 268.888 57.2844 267.94 57.2844C266.622 57.2844 265.815 56.3657 265.815 55.2131C265.815 54.3629 266.24 53.3872 266.845 52.634C267.601 51.701 268.696 51.042 269.741 51.042C270.522 51.042 271.016 51.4271 271.016 52.1404C271.016 52.7025 270.688 52.8679 270.317 52.8679Z" fill="#000000"/><path d="M273.307 53.8951C273.047 53.8951 272.839 53.8808 272.608 53.8409C272.403 54.4457 272.252 54.9792 272.252 55.624C272.252 56.6112 272.828 57.0933 273.61 57.0933C274.269 57.0933 274.928 56.7909 275.681 55.6668L275.846 55.7638C275.202 56.808 274.42 57.2873 273.43 57.2873C272.058 57.2873 271.29 56.3401 271.29 55.216C271.29 53.4044 273.239 51.0449 275.133 51.0449C275.998 51.0449 276.671 51.4301 276.671 52.0749C276.671 53.3787 274.517 53.9008 273.31 53.9008M273.364 53.7039C274.639 53.7039 275.821 52.8794 275.821 51.8923C275.821 51.5214 275.601 51.2332 275.093 51.2332C274.092 51.2332 273.13 52.4001 272.677 53.6469C272.95 53.6868 273.144 53.7011 273.361 53.7011" fill="#000000"/><path d="M282.982 53.2101L282.089 55.7351C281.98 56.0517 281.869 56.3656 281.869 56.6537C281.869 56.8734 281.937 57.0931 282.226 57.0931C282.705 57.0931 283.213 56.5853 283.544 55.8577L283.695 55.9262C283.241 56.8734 282.733 57.2842 282.006 57.2842C281.415 57.2842 280.962 57.036 280.962 56.4483C280.962 56.1887 281.044 55.9005 281.196 55.4754L282.28 52.4027C282.348 52.183 282.388 51.9919 282.388 51.8407C282.388 51.6067 282.237 51.3328 281.852 51.3328C281.467 51.3328 280.905 51.621 280.314 52.2258C279.724 52.8164 279.313 53.5011 279.064 54.1745L278.009 57.1102H277.047L279.036 51.4156H277.786L277.84 51.2244H280.009L279.447 52.9134H279.475C280.354 51.7465 281.233 51.1445 281.986 51.1445C282.739 51.1445 283.236 51.6124 283.236 52.2144C283.236 52.5311 283.139 52.7765 282.976 53.2158" fill="#000000"/><path d="M287.841 49.8749L287.347 51.2187H288.842L288.788 51.4099H287.293L285.769 55.6495C285.701 55.8292 285.521 56.3342 285.521 56.6366C285.521 56.9105 285.644 57.0902 285.96 57.0902C286.468 57.0902 286.99 56.5282 287.304 55.8549L287.47 55.9233C287.03 56.842 286.468 57.2814 285.712 57.2814C285.013 57.2814 284.668 56.8848 284.668 56.4027C284.668 56.1687 284.708 55.8948 284.985 55.1388L286.328 51.407H285.093L285.147 51.2158H286.383L286.876 49.8721H287.838L287.841 49.8749Z" fill="#000000"/><path d="M290.585 53.8951C290.325 53.8951 290.117 53.8808 289.886 53.8409C289.681 54.4457 289.529 54.9792 289.529 55.624C289.529 56.6112 290.106 57.0933 290.887 57.0933C291.546 57.0933 292.205 56.7909 292.959 55.6668L293.124 55.7638C292.479 56.808 291.698 57.2873 290.708 57.2873C289.335 57.2873 288.568 56.3401 288.568 55.216C288.568 53.4044 290.516 51.0449 292.411 51.0449C293.275 51.0449 293.949 51.4301 293.949 52.0749C293.949 53.3787 291.795 53.9008 290.588 53.9008M290.639 53.7039C291.914 53.7039 293.096 52.8794 293.096 51.8923C293.096 51.5214 292.876 51.2332 292.368 51.2332C291.367 51.2332 290.405 52.4001 289.952 53.6469C290.225 53.6868 290.419 53.7011 290.636 53.7011" fill="#000000"/><path d="M299.258 52.7568C298.998 52.7568 298.819 52.6341 298.819 52.3716C298.819 52.015 299.204 52.015 299.204 51.6298C299.204 51.4501 299.038 51.3274 298.819 51.3274C298.091 51.3274 296.884 52.9336 296.402 54.3059L295.415 57.1048H294.454L295.934 52.8794C296.071 52.4829 296.277 51.8095 296.388 51.4101H295.195L295.25 51.219H297.364C297.281 51.5613 297.09 52.2489 296.884 52.7967L296.913 52.8252C297.64 51.7268 298.257 51.1362 298.97 51.1362C299.629 51.1362 300 51.5756 300 52.0292C300 52.5371 299.683 52.7568 299.258 52.7568Z" fill="#000000"/><path d="M103.144 24.774V29.9151H108.696V31.1647H103.144V37.5955H101.657V23.5215H109.711V24.774H103.144Z" fill="#000000"/><path d="M124.373 32.7482C124.373 35.935 122.399 37.8294 119.095 37.8294C115.791 37.8294 113.837 35.9322 113.837 32.7482V23.5215H115.323V32.6711C115.323 35.0363 116.73 36.4429 119.095 36.4429C121.46 36.4429 122.887 35.0363 122.887 32.6711V23.5215H124.373V32.7482Z" fill="#000000"/><path d="M133.854 24.774V37.5955H132.367V24.774H128.048V23.5215H138.193V24.774H133.854Z" fill="#000000"/><path d="M152.407 32.7482C152.407 35.935 150.433 37.8294 147.129 37.8294C143.825 37.8294 141.871 35.9322 141.871 32.7482V23.5215H143.357V32.6711C143.357 35.0363 144.764 36.4429 147.129 36.4429C149.494 36.4429 150.92 35.0363 150.92 32.6711V23.5215H152.407V32.7482Z" fill="#000000"/><path d="M162.238 23.5215C165.208 23.5215 167.028 25.0849 167.028 27.704C167.028 29.8352 165.699 31.2218 163.939 31.6526L167.242 37.5955H165.582L162.475 31.8666H159.268V37.5955H157.782V23.5215H162.238ZM159.268 24.774V30.6369H162.278C164.312 30.6369 165.522 29.5414 165.522 27.704C165.522 25.8667 164.27 24.7711 162.178 24.7711H159.265L159.268 24.774Z" fill="#000000"/><path d="M173.286 23.5215H171.799V37.5955H173.286V23.5215Z" fill="#000000"/><path d="M177.879 36.9912V35.5048C178.797 35.9555 180.244 36.4833 181.787 36.4833C183.625 36.4833 185.031 35.6617 185.031 34.2352C185.031 32.8086 184.27 32.0469 181.787 31.1653C178.991 30.1696 177.839 28.977 177.839 26.9428C177.839 24.6176 179.833 23.2881 182.355 23.2881C183.762 23.2881 185.034 23.679 185.776 24.0128V25.4592C185.014 25.0684 183.665 24.6376 182.415 24.6376C180.618 24.6376 179.308 25.5163 179.308 26.8858C179.308 28.1554 179.993 29.0369 182.515 29.9556C185.331 30.9513 186.504 32.0868 186.504 34.1382C186.504 36.4634 184.626 37.8328 181.87 37.8328C180.247 37.8328 178.78 37.402 177.882 36.9912" fill="#000000"/><path d="M194.963 24.774V37.5955H193.479V24.774H189.157V23.5215H199.302V24.774H194.963Z" fill="#000000"/><path d="M204.797 23.5215H203.311V37.5955H204.797V23.5215Z" fill="#000000"/><path d="M221.042 25.7701C220.026 25.2423 218.54 24.6745 216.78 24.6745C213.359 24.6745 210.934 27.2166 210.934 30.5574C210.934 33.8983 213.359 36.4404 216.78 36.4404C218.617 36.4404 220.123 35.8726 221.139 35.3648V36.7913C220.454 37.1822 218.891 37.827 216.78 37.827C212.557 37.827 209.43 34.6801 209.43 30.5546C209.43 26.4291 212.557 23.2822 216.78 23.2822C218.814 23.2822 220.357 23.947 221.042 24.3378V25.7644V25.7701Z" fill="#000000"/><path d="M241.45 25.7701C240.435 25.2423 238.948 24.6745 237.188 24.6745C233.767 24.6745 231.342 27.2166 231.342 30.5574C231.342 33.8983 233.767 36.4404 237.188 36.4404C239.025 36.4404 240.532 35.8726 241.547 35.3648V36.7913C240.862 37.1822 239.299 37.827 237.188 37.827C232.965 37.827 229.838 34.6801 229.838 30.5546C229.838 26.4291 232.965 23.2822 237.188 23.2822C239.222 23.2822 240.765 23.947 241.45 24.3378V25.7644V25.7701Z" fill="#000000"/><path d="M245.929 37.5955V23.5215H247.413V36.3458H253.61V37.5955H245.929Z" fill="#000000"/><path d="M259.222 23.5215H257.735V37.5955H259.222V23.5215Z" fill="#000000"/><path d="M267.218 27.45C266.944 27.0791 266.651 26.6883 266.397 26.3174C266.397 26.7482 266.417 27.1961 266.417 27.6868V37.5982H264.93V23.4272H266.026L273.746 33.6696C274.02 34.0405 274.334 34.4513 274.568 34.8023V23.5243H276.054V37.6952H274.939L267.218 27.4529V27.45Z" fill="#000000"/><path d="M283.23 23.5215H281.743V37.5955H283.23V23.5215Z" fill="#000000"/><path d="M299.472 25.7701C298.456 25.2423 296.97 24.6745 295.209 24.6745C291.788 24.6745 289.363 27.2166 289.363 30.5574C289.363 33.8983 291.788 36.4404 295.209 36.4404C297.047 36.4404 298.553 35.8726 299.569 35.3648V36.7913C298.884 37.1822 297.321 37.827 295.209 37.827C290.987 37.827 287.86 34.6801 287.86 30.5546C287.86 26.4291 290.987 23.2822 295.209 23.2822C297.243 23.2822 298.787 23.947 299.472 24.3378V25.7644V25.7701Z" fill="#000000"/></svg>
